<svg aria-hidden="true" style="width:0;height:0;position:absolute;overflow:hidden" xmlns="http://www.w3.org/2000/svg"><defs><symbol id="icon-download" viewBox="0 0 20 20"><path d="M15 7h-3V1H8v6H5l5 5 5-5zm4.338 6.532c-.21-.224-1.611-1.723-2.011-2.114A1.503 1.503 0 0 0 16.285 11h-1.757l3.064 2.994h-3.544a.274.274 0 0 0-.24.133L12.992 16H7.008l-.816-1.873a.276.276 0 0 0-.24-.133H2.408L5.471 11H3.715c-.397 0-.776.159-1.042.418-.4.392-1.801 1.891-2.011 2.114-.489.521-.758.936-.63 1.449l.561 3.074c.128.514.691.936 1.252.936h16.312c.561 0 1.124-.422 1.252-.936l.561-3.074c.126-.513-.142-.928-.632-1.449z"/></symbol><symbol id="icon-comment" viewBox="0 0 20 20"><path d="M5.8 12.2V6H2C.9 6 0 6.9 0 8v6c0 1.1.9 2 2 2h1v3l3-3h5c1.1 0 2-.9 2-2v-1.82a.943.943 0 0 1-.2.021l-7-.001zM18 1H9c-1.1 0-2 .9-2 2v8h7l3 3v-3h1c1.1 0 2-.899 2-2V3c0-1.1-.9-2-2-2z"/></symbol><symbol id="icon-eye" viewBox="0 0 20 20"><path d="M10 4.4C3.439 4.4 0 9.232 0 10c0 .766 3.439 5.6 10 5.6s10-4.834 10-5.6c0-.768-3.44-5.6-10-5.6zm0 9.907c-2.455 0-4.445-1.928-4.445-4.307S7.545 5.691 10 5.691s4.444 1.93 4.444 4.309-1.989 4.307-4.444 4.307zM10 10c-.407-.447.663-2.154 0-2.154-1.228 0-2.223.965-2.223 2.154s.995 2.154 2.223 2.154c1.227 0 2.223-.965 2.223-2.154 0-.547-1.877.379-2.223 0z"/></symbol><symbol id="icon-like" viewBox="0 0 20 20"><path d="M17.19 4.155c-1.672-1.534-4.383-1.534-6.055 0L10 5.197 8.864 4.155c-1.672-1.534-4.382-1.534-6.054 0-1.881 1.727-1.881 4.52 0 6.246L10 17l7.19-6.599c1.88-1.726 1.88-4.52 0-6.246z"/></symbol><symbol id="icon-magnifying-glass" viewBox="0 0 20 20"><path d="m17.545 15.467-3.779-3.779a6.15 6.15 0 0 0 .898-3.21c0-3.417-2.961-6.377-6.378-6.377S2.1 4.87 2.1 8.287c0 3.416 2.961 6.377 6.377 6.377a6.15 6.15 0 0 0 3.115-.844l3.799 3.801a.953.953 0 0 0 1.346 0l.943-.943c.371-.371.236-.84-.135-1.211zM4.004 8.287c0-2.366 1.917-4.283 4.282-4.283s4.474 2.107 4.474 4.474c0 2.365-1.918 4.283-4.283 4.283s-4.473-2.109-4.473-4.474z"/></symbol></defs></svg>